<?xml version="1.0" encoding="UTF-8"?>
<svg id="Layer_1" data-name="Layer 1" xmlns="http://www.w3.org/2000/svg" viewBox="0 0 480 480">
  <defs>
    <style>
      .cls-1 {
        fill: #231f20;
        stroke-width: 0px;
      }
    </style>
  </defs>
  <g>
    <g>
      <path class="cls-1" d="m187.67,280.31c-1.19.13-2.33.2-3.51.2-3.25,0-6.57-.53-9.76-1.12-.79-3.77-1.26-7.55-1.66-11.39l1.86-.33c1.6,3.71,2.93,8.2,6.97,9.86,1.33.53,2.72.93,4.12.93,4.71,0,8.62-3.64,8.62-8.4,0-6.69-7.36-8.94-12.28-11.45-4.58-2.38-8.22-6.02-8.22-11.45,0-7.21,6.76-12.51,13.67-12.51,2.65,0,5.18.73,7.7,1.33.33.06.66.13,1.06.13.67,0,1.26-.13,1.86-.4.34,1.12.4,2.38.54,3.57l.85,7.08-1.79.46c-1.99-4.83-5.04-9.86-10.95-9.86-4.45,0-7.7,3.24-7.7,7.67,0,4.17,4.05,6.42,7.23,8.14,6.85,3.77,14.07,5.96,14.07,15.22,0,6.82-6.37,11.52-12.68,12.31Z"/>
      <path class="cls-1" d="m214.7,279.11h-2.72c-2.52,0-4.91.06-7.43.13v-1.65c5.11-.47,5.31-.47,5.31-5.83v-15.68c0-.2,0-.46-.2-.59-.87-.46-3.46-1.59-4.45-2.05v-.66l10.09-3.97v23.29c0,5.1.47,5.03,5.38,5.5v1.65c-1.99-.07-3.99-.13-5.98-.13Zm-2.39-35.47c-1.86,0-3.45-1.45-3.45-3.37s1.59-3.37,3.45-3.37,3.45,1.46,3.45,3.37-1.59,3.37-3.45,3.37Z"/>
      <path class="cls-1" d="m243.56,279.98c-1.86,0-2.79-3.05-3.32-4.44-2.66,1.39-8.7,4.5-11.68,4.5s-3.39-3.77-3.39-6.02c0-3.11.33-4.9,3.39-6.29,3.25-1.52,8.1-2.51,11.68-3.71,0,0,.06-3.58.06-4.83,0-3.45-.99-6.69-5.98-6.69-2.59,0-3.65.99-4.25,2.12-.33.53-.46,2.32-.53,3.97l-5.31-.06c-.2-1.13.4-1.85.93-2.38,1.46-1.52,5.51-4.44,7.36-5.49,1.39-.8,3.39-1.72,5.05-1.72,5.58,0,7.96,5.03,7.96,8.47v13.5c0,1.72-.4,4.7,2.13,4.7.99,0,2.32-.73,3.18-1.19l.6.99c-1.53,1.26-6.03,4.57-7.89,4.57Zm-3.32-14.29c-2.46.59-7.96,1.78-9.56,4.04-.53.72-.79,1.72-.79,2.58,0,1.98,1.92,4.17,3.98,4.17s4.65-1.58,6.38-2.58v-8.2Z"/>
      <path class="cls-1" d="m291.21,279.25v-1.65c1.26,0,4.04-.2,4.9-1.26.73-.93.66-2.71.73-3.84.13-2.91.4-5.82.4-8.74,0-2.32-.14-4.76-.99-6.95-.86-2.11-3.78-3.24-5.91-3.24-2.59,0-4.84,1.13-6.91,2.58.14.79.14,1.65.14,2.45,0,5.23-.06,10.46-.06,15.69,0,.66.06,1.39.39,1.99.6,1.19,3.45,1.26,4.58,1.32v1.65h-15.66v-1.65c1.18-.07,4.31-.14,4.9-1.39.53-1.19.53-6.95.53-8.53,0-2.05,0-4.1-.07-6.16-.07-1.65,0-3.37-.53-4.96-.73-2.12-3.78-3.31-5.9-3.31-2.72,0-4.78,1.13-6.97,2.58-.21.13-.33.2-.33.53v17.07c0,.73,0,2.12.4,2.78.79,1.39,3.51,1.33,4.91,1.45v1.59h-15.73v-1.65c4.05-.27,4.92,0,4.92-4.37,0-6.16-.07-12.24-.07-18.4-1.46-.73-2.98-1.52-4.51-1.98v-.86l10.08-3.77v6.35c1.39-.79,2.59-1.92,3.91-2.78,2.32-1.52,4.39-2.85,7.24-2.85,2.25,0,4.97,1.79,6.17,3.64.53.8.93,1.65,1.26,2.52,3.59-2.58,6.18-5.89,11.02-5.89,2.38,0,4.84,1.92,6.23,3.7,2.06,2.65,2.46,5.83,2.46,9.07,0,3.97-.53,8.01-.53,11.98s1.86,3.24,5.05,3.64v1.65h-16.06Z"/>
    </g>
    <g>
      <path class="cls-1" d="m40.11,351.25c-3.19,0-6.37,0-9.55.13l.06-1.92c.93,0,4.25.13,4.25-1.39,0-1.19-1.66-2.58-2.39-3.44-3.19-3.51-6.38-6.88-9.56-10.39-.73-.79-2.46-2.97-3.52-3.24-.2-.07-.4-.07-.6-.07-.6,0-1.2,0-1.79.07v13.3c0,1.12,0,2.45.66,3.37,1.13,1.52,3.92,1.66,5.71,1.79v1.92c-3.64-.07-7.36-.13-11.02-.13-2.65,0-5.37,0-8.03.13v-1.92c1.6-.2,4.45,0,5.51-1.39.86-1.13.66-4.63.66-6.09.07-5.43.13-10.85.13-16.28,0-2.52.33-13.11-.86-14.56-1.06-1.26-4.25-1.06-5.78-1.26v-1.92h19.45v1.92c-1.67.13-3.99-.26-5.38.8-1.33.99-.93,4.63-.99,6.15,0,.93-.07,2.05-.07,2.98,0,3.11.07,6.22.07,9.33h.47c3.19,0,5.31-2.98,7.3-5.16,1.93-2.12,9.16-9.59,9.16-12.11,0-1.92-3.45-1.79-4.78-1.99v-1.92h17.12v1.92c-5.9.33-5.77.8-9.83,4.7-2.06,1.99-3.98,4.3-5.97,6.36-1.99,2.05-3.79,4.3-5.78,6.42,2.25,2.18,4.38,4.63,6.5,6.95,2.93,3.11,5.84,6.22,8.77,9.33,1.06,1.13,3.91,4.11,5.11,4.83,1.2.73,2.06.79,3.46.99v1.92c-2.86-.13-5.64-.13-8.5-.13Z"/>
      <path class="cls-1" d="m64.11,352.24c-7.5,0-13.34-6.82-13.34-14.03,0-4.63,1.46-9.27,4.78-12.57,2.26-2.25,5.71-3.84,8.96-3.84,5.97,0,10.81,4.24,11.15,10.26-6.5.27-12.94.53-19.45.53-.13.66-.13,1.33-.13,1.98v.99c0,6.36,4.51,12.11,11.21,12.11,2.99,0,6.04-2.18,7.97-4.3l.99.86c-2.32,4.1-7.23,8.01-12.14,8.01Zm4.58-25.81c-1.13-2.12-3.06-2.98-5.37-2.98-3.91,0-6.18,4.24-6.77,7.61,4.44-.06,8.75-.27,13.14-1.05,0-1.19-.4-2.52-1-3.58Z"/>
      <path class="cls-1" d="m116.05,351.38v-1.65c1.27,0,4.05-.2,4.91-1.26.73-.93.66-2.71.73-3.84.13-2.91.39-5.82.39-8.74,0-2.32-.13-4.76-.99-6.95-.87-2.12-3.78-3.24-5.91-3.24-2.59,0-4.84,1.12-6.9,2.58.13.79.13,1.65.13,2.45,0,5.23-.07,10.46-.07,15.69,0,.66.07,1.39.4,1.99.6,1.19,3.45,1.26,4.58,1.32v1.65h-15.67v-1.65c1.2-.07,4.32-.14,4.92-1.39.53-1.19.53-6.95.53-8.53,0-2.05,0-4.1-.06-6.16-.07-1.65,0-3.37-.53-4.96-.73-2.12-3.78-3.31-5.9-3.31-2.73,0-4.78,1.12-6.97,2.58-.2.13-.34.2-.34.53v17.07c0,.73,0,2.12.4,2.78.8,1.39,3.52,1.33,4.91,1.45v1.59h-15.73v-1.65c4.05-.27,4.92,0,4.92-4.37,0-6.16-.07-12.25-.07-18.4-1.46-.73-2.99-1.52-4.51-1.98v-.86l10.08-3.77v6.35c1.4-.8,2.6-1.92,3.92-2.78,2.33-1.52,4.38-2.85,7.23-2.85,2.26,0,4.98,1.79,6.17,3.64.53.8.93,1.65,1.27,2.52,3.58-2.58,6.17-5.89,11.01-5.89,2.39,0,4.84,1.92,6.24,3.7,2.06,2.65,2.46,5.83,2.46,9.07,0,3.97-.54,8-.54,11.98s1.86,3.24,5.05,3.64v1.65h-16.06Z"/>
      <path class="cls-1" d="m147.98,351.11l-1.73.06c-.86.07-1.72,0-2.58-.13-.07,2.32-.07,4.63-.07,6.95,0,1.66-.07,3.38.07,4.96.26,3.18,3.45,2.39,5.64,2.78v1.65h-16.19v-1.59c2.38-.2,5.17-.27,5.17-3.37v-35.47c-1.39-.79-2.98-1.45-4.5-1.98v-.86c3.25-1.32,6.44-2.65,9.75-3.77v1.19c0,1.46.07,2.78.07,4.23,2.65-1.58,5.97-4.17,9.16-4.17,3.78,0,7.56,2.11,9.95,4.96,1.8,2.12,3.06,6.09,3.06,8.8,0,9.33-9.02,15.42-17.79,15.75Zm5.18-24.88c-1.07-.46-2.53-.86-3.65-.86-2.32,0-4.04.86-5.91,2.12v17.14c1.6,2.78,4.38,4.63,7.64,4.63,1.26,0,2.39-.39,3.45-.99,3.92-2.32,5.45-6.95,5.45-11.25,0-4.97-2.39-8.87-6.97-10.79Z"/>
      <path class="cls-1" d="m178.23,351.25h-2.72c-2.52,0-4.91.06-7.43.13v-1.65c5.11-.47,5.31-.47,5.31-5.83v-15.68c0-.2,0-.46-.19-.59-.87-.46-3.46-1.58-4.45-2.05v-.66l10.09-3.97v23.29c0,5.1.47,5.03,5.38,5.49v1.65c-1.99-.07-3.98-.13-5.98-.13Zm-2.39-35.47c-1.86,0-3.45-1.45-3.45-3.37s1.59-3.37,3.45-3.37,3.45,1.46,3.45,3.37-1.6,3.37-3.45,3.37Z"/>
      <path class="cls-1" d="m206.46,351.38v-1.65c1.25,0,4.11-.2,4.97-1.26.73-.93.66-2.71.73-3.84.13-3.04.33-6.02.33-9.07,0-2.32-.07-4.77-1-6.95-.86-2.12-3.79-3.24-5.9-3.24-2.46,0-5.04,1.12-6.9,2.71-.33.27-.33.46-.33.86-.27,5.29,0,10.72,0,16.02,0,4.57,1.32,4.23,5.18,4.77v1.65h-15.8v-1.65c1.53-.14,4.25-.07,4.84-1.92.27-.93.21-7.21.21-8.47v-12.38c-1.46-.79-2.99-1.32-4.51-1.98v-.86l10.09-3.77v6.35c1.39-.8,2.59-2.05,3.91-2.91,2.33-1.52,4.38-2.71,7.17-2.71,2.26,0,4.78,1.92,6.11,3.64,2.05,2.65,2.45,5.83,2.45,9.07,0,4.1-.53,8.21-.53,12.31s1.86,3.24,5.04,3.64v1.65h-16.06Z"/>
      <path class="cls-1" d="m242.63,349.66c-1.92,1.72-5.11,2.58-7.63,2.58s-4.91-.4-7.3-.99c-.34-2.45-.73-4.96-1.06-7.41l1.79-.4c1.59,2.98,2.79,7.22,6.91,7.22,2.72,0,5.37-1.72,5.37-4.63,0-8.07-13.73-7.01-13.73-16.28,0-4.96,4.91-8.07,9.49-8.07,1.99,0,3.72.4,5.64.79.14,0,.33.07.46.07.53,0,1.07-.2,1.53-.4.47,2.45.86,4.97,1.13,7.48l-1.66.4c-1.32-3.05-3.52-6.75-7.3-6.75-2.92,0-4.84,1.65-4.84,4.63,0,2.78,1.73,3.71,3.78,5.03,4.25,2.84,10.15,4.57,10.15,10.79,0,1.92-1.33,4.63-2.72,5.96Z"/>
      <path class="cls-1" d="m248.8,351.38v-1.65c1.32-.07,3.98.26,4.38-1.39.33-1.39.33-3.11.33-4.57.13-8.8.2-17.47.2-26.27,0-3.18-.07-6.29-.07-9.46-1.39-.73-2.66-1.59-4.12-2.12v-.46c3.19-1.46,6.44-2.85,9.69-4.31v.67c0,3.9-.13,7.74-.2,11.65-.13,9.2-.26,18.47-.26,27.66v4.37c0,4.24,1.12,4.17,4.78,4.37v1.52h-14.73Zm17.71,0v-1.52c1,0,3.65.07,3.65-1.39,0-1.06-7.44-8.67-8.76-9.92-.86-.8-1.72-1.52-2.59-2.32,2.73-1.65,5.37-3.77,7.63-6.02.74-.73,3.38-3.38,3.38-4.37,0-1.39-2.72-1.59-3.64-1.65v-1.66h13.74v1.66c-3.19.19-5.18,1.26-7.7,3.24-2.78,2.19-5.44,4.57-8.16,6.82,3.39,3.64,6.7,7.28,10.23,10.79,1.26,1.26,2.58,2.71,3.98,3.9.93.73,1.92.8,3.06.8v1.65h-14.81Z"/>
      <path class="cls-1" d="m294.71,351.25h-2.72c-2.52,0-4.91.06-7.43.13v-1.65c5.12-.47,5.31-.47,5.31-5.83v-15.68c0-.2,0-.46-.19-.59-.87-.46-3.46-1.58-4.46-2.05v-.66l10.09-3.97v23.29c0,5.1.46,5.03,5.38,5.49v1.65c-1.99-.07-3.98-.13-5.98-.13Zm-2.38-35.47c-1.86,0-3.45-1.45-3.45-3.37s1.59-3.37,3.45-3.37,3.45,1.46,3.45,3.37-1.59,3.37-3.45,3.37Z"/>
      <path class="cls-1" d="m351.42,351.38v-1.98c2.13-.14,5.05.19,6.57-1.52.93-1.06.93-6.49.93-8.01,0-3.31-.07-6.55-.07-9.86h-24.62c0,4.56-.07,9.06-.07,13.63,0,5.83,2.39,5.62,7.3,5.76v1.98h-20.25l-.07-1.98c1.79-.14,4.52-.07,5.64-1.72.93-1.39.8-4.83.8-6.49,0-8.6.19-17.4.19-26.01,0-5.29-2.19-4.96-6.57-5.29v-1.92h19.92v1.92c-1.59.07-3.86,0-5.25.86-1.52.92-1.46,2.25-1.46,3.84-.06,4.3-.13,8.67-.19,12.97h24.62c.07-3.64.13-7.21.13-10.86,0-6.61-.93-6.61-7.16-6.82v-1.92h20.11v1.92c-1.73.07-4.85-.13-5.91,1.52-.73,1.13-.53,6.09-.53,7.54,0,7.75-.2,15.69-.2,23.43,0,1.19-.06,4.76.73,5.69,1.33,1.59,4.12,1.12,5.97,1.33v1.98h-20.57Z"/>
      <path class="cls-1" d="m402.03,347.21c-2.79,2.85-7.43,5.03-11.41,5.03-8.7,0-15.53-7.01-15.53-15.62,0-7.81,8.03-14.76,15.66-14.76,3.52,0,7.3,1.59,10.09,3.71,3.38,2.65,5.5,6.88,5.5,11.18,0,3.77-1.65,7.75-4.31,10.46Zm-4.58-19.52c-1.53-2.25-3.92-3.98-6.71-3.98-1.46,0-2.92.47-4.12,1.26-3.92,2.45-5.25,7.28-5.25,11.65,0,5.62,3,13.77,9.83,13.77,6.17,0,8.83-8.21,8.83-13.24,0-3.31-.73-6.68-2.59-9.46Z"/>
      <path class="cls-1" d="m428.38,325.64h-9.29v17.07c0,3.24,1.06,6.02,4.78,6.02,1.92,0,3.58-.66,5.04-1.85l.66,1.06c-2.45,2.58-5.77,4.3-9.36,4.3-4.84,0-6.9-2.98-6.9-7.48,0-6.29.26-12.84.33-19.12h-3.98l-.13-.46c3.25-2.84,6.44-5.69,9.75-8.47v5.83c2.85.06,5.64,0,8.5,0h1.92l-1.32,3.11Z"/>
      <path class="cls-1" d="m445.45,352.24c-7.5,0-13.33-6.82-13.33-14.03,0-4.63,1.46-9.27,4.77-12.57,2.26-2.25,5.71-3.84,8.96-3.84,5.97,0,10.82,4.24,11.15,10.26-6.5.27-12.94.53-19.45.53-.13.66-.13,1.33-.13,1.98v.99c0,6.36,4.51,12.11,11.22,12.11,2.98,0,6.04-2.18,7.96-4.3l1,.86c-2.33,4.1-7.24,8.01-12.15,8.01Zm4.58-25.81c-1.13-2.12-3.06-2.98-5.37-2.98-3.92,0-6.18,4.24-6.77,7.61,4.45-.06,8.76-.27,13.14-1.05,0-1.19-.4-2.52-1-3.58Z"/>
      <path class="cls-1" d="m459.6,351.38v-1.65c1.39-.14,4.05.06,4.77-1.46.47-1.06.4-3.84.4-5.1,0-10.13.13-20.25.13-30.38,0-1.65,0-3.31-.13-4.96-1.33-.59-2.66-1.33-3.98-1.92v-.46c3.25-1.33,6.43-2.85,9.69-4.31v.67c0,13.5-.4,27.06-.4,40.57,0,1.12,0,4.89.4,5.82.73,1.58,3.98,1.46,5.51,1.52v1.65h-16.4Z"/>
    </g>
    <g>
      <path class="cls-1" d="m163.77,425.82c2.57.03,3.27.05,4.21.31,1.95.59,3.43,2.33,3.43,4.43,0,1.79-.99,3.68-3.28,4.02,2.16.39,4.16,2.15,4.16,5.13,0,2.23-1.09,4.2-3.49,5.03-1.22.47-2.18.49-4.4.49h-7.62v-19.42h6.97Zm-3.33,7.71h3.77c2.31,0,3.43-.7,3.43-2.13,0-1.79-1.4-2.41-3.49-2.41h-3.72v4.54Zm0,8.56h4.73c2.14,0,3.38-.75,3.38-2.67,0-1.79-1.24-2.98-4.16-2.98h-3.95v5.65Z"/>
      <path class="cls-1" d="m177.88,445.24l8.3-19.45h3.46l8.21,19.45h-4.16l-1.72-4.41h-8.32l-1.72,4.41h-4.06Zm7-7.52h5.88l-2.93-7.47-2.94,7.47Z"/>
      <path class="cls-1" d="m208.58,430.8v14.44h-3.64v-19.45h4.73l8.87,13.97v-13.97h3.61v19.45h-4.5l-9.08-14.44Z"/>
      <path class="cls-1" d="m248.1,445.24h-3.15v-1.58c-1.33,1.32-2.88,2.07-5.38,2.07-6.09,0-9.28-4.75-9.28-10.04,0-6.17,4.08-10.4,9.49-10.4,4.11,0,7.13,2.39,8.32,5.68l-3.51,1.43c-.36-1.09-1.43-3.79-4.76-3.79-3.72,0-5.53,3.11-5.53,6.98,0,4.3,2.36,6.82,5.59,6.82,2.06,0,4.5-1.11,4.84-4.59h-4.89v-3.24h8.27v10.66Z"/>
      <path class="cls-1" d="m257.15,425.79h3.64v9.1l8.19-9.1h4.42l-7.51,8.25,7.13,11.2h-4.37l-.03-.05-5.23-8.43-2.6,2.85v5.63h-3.64v-19.45Z"/>
      <path class="cls-1" d="m288.55,445.73c-6.01,0-10.43-4.3-10.43-10.27s4.48-10.17,10.43-10.17,10.51,3.94,10.51,10.17-4.45,10.27-10.51,10.27Zm6.58-10.27c0-3.94-2.72-6.87-6.56-6.87s-6.53,3.04-6.53,6.87,2.62,6.92,6.53,6.92,6.56-2.93,6.56-6.92Z"/>
      <path class="cls-1" d="m306.94,425.79h3.64v9.1l8.19-9.1h4.43l-7.52,8.25,7.12,11.2h-4.36l-.03-.05-5.23-8.43-2.6,2.85v5.63h-3.64v-19.45Z"/>
    </g>
    <rect class="cls-1" x="67.45" y="393.35" width="345.11" height="2.76"/>
  </g>
  <path class="cls-1" d="m243.78,147.46c-13.82.85-25.63,1.11-34.79,1.12,1.98-3.22,4.99-7.01,9.38-9.91,8.19-5.39,19.54-8.09,25.84-9.64,14.77-3.62,30.87-8.16,40.29-18.17,0,0-12.37,8.35-37.78,11.9-9.38,1.31-17.5,2.09-24.11,2.55,2.34-6.77,9.11-11.11,18.15-14.55,10.27-3.92,19.71-8.82,25.21-13.55,6.03-5.16,7.29-11.17,7.29-11.17-1.41,1.95-4.48,5.73-12.76,10.47-10.16,5.84-20.84,8.49-27.22,10.01.23-1.66,1.17-4.05,4.14-6.93,4.24-4.14,9.73-6.4,16.36-11.13,3.47-2.47,6.71-5.51,8.62-8.14,3.14-4.29,3.93-7.97,4.27-12.24,0,0-2.63,4.91-6.72,9.45-3.07,3.39-7.14,6.32-10.48,8.16-2.93,1.62-5.7,2.84-8.22,3.76.21-2.82,2.43-7.34,8.53-13.29,6.64-6.46,10.8-12.87,11.03-22.37.21-9.77-6.57-19.52-6.57-19.52,2.73,7.42,3.12,13.86,1.7,19.62-2.24,9.08-8.19,14.85-11.01,18.36-3.39,4.23-5.08,7.61-5.51,10.87-.3,2.34.22,4.75.92,6.67-6.44,2.27-10.9,2.58-10.9,2.58l3.46,14.22c-5.34,1.24-14.41,1.79-14.41,1.79l2.11,17.06c-10.78.69-16.93.5-16.93.5l1.69,22.63c-11.12-.06-17.45-.48-17.45-.48v37.28s5.16-13.81,17.65-20.74c10.91-6.07,23.73-7.46,31.92-8.58,12.19-1.69,43.05-6.7,54.59-19.47,0,0-15.64,8.9-48.3,10.87Z"/>
</svg>