<?xml version="1.0" encoding="UTF-8"?>
<svg id="Artwork" xmlns="http://www.w3.org/2000/svg" viewBox="0 0 480 480">
  <defs>
    <style>
      .cls-1 {
        fill: #a39383;
      }

      .cls-1, .cls-2 {
        stroke-width: 0px;
      }

      .cls-2 {
        fill: #010f2a;
      }
    </style>
  </defs>
  <g>
    <path class="cls-2" d="m127.43,279.01c-1.19.13-2.32.19-3.52.19-3.25,0-6.57-.51-9.76-1.09-.79-3.65-1.26-7.3-1.66-11.01l1.86-.32c1.59,3.58,2.92,7.94,6.97,9.54,1.33.51,2.72.9,4.12.9,4.71,0,8.63-3.52,8.63-8.13,0-6.47-7.37-8.64-12.28-11.08-4.58-2.3-8.23-5.83-8.23-11.08,0-6.98,6.77-12.1,13.67-12.1,2.66,0,5.18.7,7.7,1.28.33.07.66.13,1.06.13.66,0,1.26-.13,1.86-.38.33,1.09.4,2.3.53,3.46l.86,6.85-1.79.45c-1.99-4.67-5.04-9.54-10.95-9.54-4.45,0-7.7,3.14-7.7,7.43,0,4.03,4.05,6.21,7.23,7.87,6.84,3.65,14.07,5.76,14.07,14.73,0,6.59-6.37,11.14-12.68,11.91Z"/>
    <path class="cls-2" d="m154.46,277.86h-2.72c-2.52,0-4.91.06-7.43.13v-1.6c5.11-.45,5.31-.45,5.31-5.64v-15.17c0-.19,0-.45-.2-.58-.86-.45-3.45-1.54-4.45-1.98v-.64l10.09-3.84v22.54c0,4.93.46,4.87,5.38,5.32v1.6c-1.99-.07-3.98-.13-5.97-.13Zm-2.39-34.32c-1.86,0-3.45-1.41-3.45-3.26s1.59-3.27,3.45-3.27,3.45,1.41,3.45,3.27-1.59,3.26-3.45,3.26Z"/>
    <path class="cls-2" d="m182.69,277.99v-1.6c1.26,0,4.11-.19,4.98-1.22.73-.9.66-2.62.73-3.71.13-2.95.33-5.83.33-8.77,0-2.24-.07-4.61-1-6.73-.86-2.05-3.78-3.14-5.91-3.14-2.46,0-5.04,1.09-6.9,2.62-.33.26-.33.45-.33.83-.26,5.12,0,10.37,0,15.49,0,4.42,1.33,4.1,5.18,4.61v1.6h-15.8v-1.6c1.53-.13,4.25-.07,4.85-1.86.26-.9.2-6.98.2-8.2v-11.98c-1.46-.77-2.99-1.28-4.52-1.92v-.83l10.09-3.65v6.15c1.39-.77,2.59-1.98,3.92-2.82,2.32-1.47,4.38-2.62,7.17-2.62,2.26,0,4.78,1.86,6.11,3.52,2.06,2.56,2.45,5.64,2.45,8.77,0,3.97-.53,7.94-.53,11.91s1.86,3.14,5.04,3.52v1.6h-16.06Z"/>
    <path class="cls-2" d="m224.19,279.33l-.27.06c-.06-1.86-.13-3.71-.13-5.57-1.13.71-7.37,4.1-8.43,4.36-.6.13-1.13.19-1.73.19-2.26,0-4.85-.96-6.64-2.24-3.58-2.56-5.51-6.59-5.51-10.82,0-.32-.06-.77,0-1.09.86-6.72,5.11-11.2,11.68-13.32,1.79-.58,3.92-1.02,5.84-1.02,1.59,0,3.19.07,4.78.13-.2-4.23,0-8.52,0-12.74v-1.28c-1.39-.58-2.65-1.41-4.12-1.92v-.58c3.25-1.22,6.37-2.82,9.63-4.1v.64c0,14.08-.4,28.24-.4,42.32,0,.51,0,1.6.26,2.05.33.58,3.98.58,4.71.64v1.35c-3.25.9-6.37,2.18-9.69,2.95Zm-.46-23.69c-1.73-1.92-4.51-3.91-7.3-3.91-6.44,0-9.43,6.21-9.43,11.65s4.18,11.01,10.35,11.01c2.06,0,4.71-1.21,6.37-2.3.06-2.88.13-5.7.13-8.58,0-2.62-.07-5.25-.13-7.87Z"/>
    <path class="cls-2" d="m255.81,277.99v-1.6c1.13-.07,3.85-.07,4.45-1.15.73-1.41.86-7.56.86-9.35,0-5.25.6-12.87-7.04-12.87-2.19,0-4.98,1.41-6.77,2.56v16.39c0,4.8,1.06,3.9,5.11,4.42v1.6h-15.13v-1.6c1.33-.13,4.25-.07,4.65-1.67.27-1.02.13-2.24.13-3.33,0-11.4.07-22.73.07-34.13v-1.28c-1.33-.7-2.79-1.47-4.18-1.98v-.45l9.69-4.16v.45c0,7.36-.27,14.79-.27,22.15v2.11c3.59-2.5,5.44-4.87,10.29-4.87,1.99,0,4.18,1.09,5.57,2.43,3.39,3.27,3.32,7.17,3.32,11.52,0,3.33-.4,6.59-.4,9.86,0,3.71,1.86,3.01,4.85,3.33v1.6h-15.2Z"/>
    <path class="cls-2" d="m300.37,273.96c-2.79,2.75-7.43,4.86-11.41,4.86-8.7,0-15.53-6.79-15.53-15.11,0-7.56,8.03-14.28,15.66-14.28,3.52,0,7.3,1.54,10.09,3.59,3.39,2.56,5.51,6.66,5.51,10.82,0,3.65-1.66,7.49-4.32,10.12Zm-4.58-18.89c-1.53-2.18-3.92-3.84-6.7-3.84-1.46,0-2.92.45-4.12,1.22-3.92,2.37-5.24,7.04-5.24,11.27,0,5.44,2.99,13.32,9.83,13.32,6.17,0,8.83-7.94,8.83-12.81,0-3.2-.73-6.47-2.59-9.15Z"/>
    <path class="cls-2" d="m328.19,256.16c-1.39-.7-3.92-2.18-5.51-2.18-2.39,0-4.78,2.5-4.78,4.8v13.7c0,.83.14,1.66.6,2.37.86,1.28,4.38,1.41,5.84,1.54v1.6h-17.06v-1.6c2.52-.13,5.11-.07,5.11-3.27v-18.5c-1.46-.71-2.99-1.41-4.52-1.92v-.83c3.25-1.21,6.7-2.3,9.96-3.52v6.79c.86-.96,1.72-1.86,2.59-2.82,1.53-1.66,3.19-3.33,5.64-3.33,1.52,0,3.72,1.6,4.51,2.82-.73,1.47-1.53,2.95-2.39,4.35Z"/>
    <path class="cls-2" d="m352.37,277.99v-1.6c1.26,0,4.11-.19,4.98-1.22.73-.9.66-2.62.73-3.71.13-2.95.33-5.83.33-8.77,0-2.24-.07-4.61-1-6.73-.86-2.05-3.78-3.14-5.91-3.14-2.46,0-5.04,1.09-6.9,2.62-.33.26-.33.45-.33.83-.26,5.12,0,10.37,0,15.49,0,4.42,1.33,4.1,5.18,4.61v1.6h-15.8v-1.6c1.53-.13,4.25-.07,4.85-1.86.26-.9.2-6.98.2-8.2v-11.98c-1.46-.77-2.99-1.28-4.52-1.92v-.83l10.09-3.65v6.15c1.39-.77,2.59-1.98,3.92-2.82,2.32-1.47,4.38-2.62,7.17-2.62,2.26,0,4.78,1.86,6.11,3.52,2.06,2.56,2.45,5.64,2.45,8.77,0,3.97-.53,7.94-.53,11.91s1.86,3.14,5.04,3.52v1.6h-16.06Z"/>
  </g>
  <g>
    <path class="cls-2" d="m40.11,347.65c-3.19,0-6.37,0-9.56.13l.06-1.86c.93,0,4.25.13,4.25-1.35,0-1.15-1.66-2.5-2.39-3.33-3.19-3.39-6.37-6.66-9.56-10.05-.73-.77-2.46-2.88-3.52-3.14-.2-.07-.4-.07-.6-.07-.6,0-1.19,0-1.79.07v12.87c0,1.09,0,2.37.66,3.26,1.13,1.47,3.92,1.6,5.71,1.73v1.86c-3.65-.07-7.37-.13-11.02-.13-2.66,0-5.38,0-8.03.13v-1.86c1.59-.19,4.45,0,5.51-1.35.86-1.09.66-4.48.66-5.89.06-5.25.13-10.5.13-15.75,0-2.43.33-12.68-.86-14.09-1.06-1.22-4.25-1.02-5.77-1.22v-1.86h19.45v1.86c-1.66.13-3.98-.26-5.38.77-1.33.96-.93,4.48-.99,5.95,0,.9-.07,1.99-.07,2.88,0,3.01.07,6.02.07,9.03h.46c3.19,0,5.31-2.88,7.3-4.99,1.93-2.05,9.16-9.28,9.16-11.72,0-1.86-3.45-1.73-4.78-1.92v-1.86h17.13v1.86c-5.91.32-5.77.77-9.83,4.55-2.06,1.92-3.98,4.16-5.97,6.15-1.99,1.99-3.78,4.16-5.77,6.21,2.26,2.11,4.38,4.48,6.5,6.72,2.92,3.01,5.84,6.02,8.76,9.03,1.06,1.09,3.92,3.97,5.11,4.67,1.2.7,2.06.77,3.45.96v1.86c-2.86-.13-5.64-.13-8.5-.13Z"/>
    <path class="cls-2" d="m64.11,348.61c-7.5,0-13.34-6.59-13.34-13.57,0-4.48,1.46-8.96,4.78-12.17,2.26-2.18,5.71-3.71,8.96-3.71,5.97,0,10.82,4.1,11.15,9.92-6.5.26-12.94.51-19.45.51-.13.64-.13,1.28-.13,1.92v.96c0,6.15,4.51,11.71,11.22,11.71,2.99,0,6.04-2.11,7.97-4.16l.99.83c-2.32,3.97-7.23,7.75-12.15,7.75Zm4.58-24.97c-1.13-2.05-3.05-2.88-5.37-2.88-3.92,0-6.17,4.1-6.77,7.36,4.45-.06,8.76-.26,13.14-1.02,0-1.15-.4-2.43-1-3.46Z"/>
    <path class="cls-2" d="m116.05,347.77v-1.6c1.26,0,4.05-.19,4.91-1.22.73-.9.66-2.62.73-3.71.13-2.82.4-5.64.4-8.45,0-2.24-.13-4.61-.99-6.72-.86-2.05-3.78-3.14-5.91-3.14-2.59,0-4.85,1.09-6.9,2.5.13.77.13,1.6.13,2.37,0,5.06-.06,10.12-.06,15.18,0,.64.06,1.35.4,1.92.6,1.15,3.45,1.21,4.58,1.28v1.6h-15.66v-1.6c1.19-.07,4.32-.13,4.91-1.35.53-1.15.53-6.72.53-8.26,0-1.99,0-3.97-.06-5.96-.07-1.6,0-3.26-.53-4.8-.73-2.05-3.78-3.2-5.91-3.2-2.72,0-4.78,1.09-6.97,2.5-.2.13-.33.19-.33.51v16.52c0,.71,0,2.05.4,2.69.79,1.35,3.52,1.28,4.91,1.41v1.54h-15.73v-1.6c4.05-.26,4.91,0,4.91-4.23,0-5.96-.07-11.84-.07-17.8-1.46-.7-2.99-1.47-4.51-1.92v-.83l10.09-3.65v6.15c1.39-.77,2.59-1.86,3.92-2.69,2.32-1.47,4.38-2.76,7.24-2.76,2.26,0,4.98,1.73,6.17,3.52.53.77.93,1.6,1.26,2.43,3.58-2.5,6.17-5.7,11.02-5.7,2.39,0,4.85,1.86,6.24,3.58,2.06,2.56,2.46,5.64,2.46,8.77,0,3.84-.53,7.75-.53,11.59s1.86,3.14,5.04,3.52v1.6h-16.06Z"/>
    <path class="cls-2" d="m147.98,347.52l-1.73.06c-.86.07-1.73,0-2.59-.13-.07,2.24-.07,4.48-.07,6.72,0,1.6-.06,3.27.07,4.8.26,3.07,3.45,2.31,5.64,2.69v1.6h-16.19v-1.54c2.39-.19,5.17-.26,5.17-3.27v-34.32c-1.39-.77-2.99-1.41-4.51-1.92v-.83c3.25-1.28,6.44-2.56,9.76-3.65v1.15c0,1.41.06,2.69.06,4.1,2.66-1.54,5.97-4.03,9.16-4.03,3.78,0,7.57,2.05,9.95,4.8,1.79,2.05,3.05,5.89,3.05,8.52,0,9.03-9.03,14.92-17.79,15.24Zm5.17-24.08c-1.06-.45-2.52-.83-3.65-.83-2.32,0-4.05.83-5.91,2.05v16.58c1.59,2.69,4.38,4.48,7.63,4.48,1.26,0,2.39-.38,3.45-.96,3.92-2.24,5.44-6.73,5.44-10.89,0-4.8-2.39-8.58-6.97-10.44Z"/>
    <path class="cls-2" d="m178.23,347.65h-2.72c-2.52,0-4.91.06-7.43.13v-1.6c5.11-.45,5.31-.45,5.31-5.64v-15.17c0-.19,0-.45-.2-.58-.86-.45-3.45-1.54-4.45-1.98v-.64l10.09-3.84v22.54c0,4.93.46,4.87,5.38,5.32v1.6c-1.99-.07-3.98-.13-5.97-.13Zm-2.39-34.32c-1.86,0-3.45-1.41-3.45-3.26s1.59-3.27,3.45-3.27,3.45,1.41,3.45,3.27-1.59,3.26-3.45,3.26Z"/>
    <path class="cls-2" d="m206.46,347.77v-1.6c1.26,0,4.11-.19,4.98-1.22.73-.9.66-2.62.73-3.71.13-2.95.33-5.83.33-8.77,0-2.24-.07-4.61-1-6.73-.86-2.05-3.78-3.14-5.91-3.14-2.46,0-5.04,1.09-6.9,2.62-.33.26-.33.45-.33.83-.26,5.12,0,10.37,0,15.49,0,4.42,1.33,4.1,5.18,4.61v1.6h-15.8v-1.6c1.53-.13,4.25-.07,4.85-1.86.26-.9.2-6.98.2-8.2v-11.98c-1.46-.77-2.99-1.28-4.52-1.92v-.83l10.09-3.65v6.15c1.39-.77,2.59-1.98,3.92-2.82,2.32-1.47,4.38-2.62,7.17-2.62,2.26,0,4.78,1.86,6.11,3.52,2.06,2.56,2.45,5.64,2.45,8.77,0,3.97-.53,7.94-.53,11.91s1.86,3.14,5.04,3.52v1.6h-16.06Z"/>
    <path class="cls-2" d="m242.63,346.11c-1.92,1.67-5.11,2.5-7.63,2.5s-4.91-.38-7.3-.96c-.33-2.37-.73-4.8-1.06-7.17l1.79-.39c1.59,2.88,2.79,6.98,6.9,6.98,2.72,0,5.37-1.67,5.37-4.48,0-7.81-13.74-6.79-13.74-15.75,0-4.8,4.91-7.81,9.49-7.81,1.99,0,3.72.39,5.64.77.13,0,.33.07.46.07.53,0,1.06-.19,1.53-.39.46,2.37.86,4.8,1.13,7.24l-1.66.38c-1.33-2.95-3.52-6.53-7.3-6.53-2.92,0-4.85,1.6-4.85,4.48,0,2.69,1.73,3.59,3.78,4.87,4.25,2.75,10.15,4.42,10.15,10.44,0,1.86-1.33,4.48-2.72,5.76Z"/>
    <path class="cls-2" d="m248.8,347.77v-1.6c1.33-.07,3.98.26,4.38-1.35.33-1.35.33-3.01.33-4.42.13-8.52.2-16.9.2-25.42,0-3.07-.07-6.08-.07-9.15-1.39-.71-2.66-1.54-4.12-2.05v-.45c3.19-1.41,6.44-2.76,9.69-4.16v.64c0,3.78-.13,7.49-.2,11.27-.14,8.9-.27,17.86-.27,26.76v4.23c0,4.1,1.13,4.03,4.78,4.23v1.47h-14.74Zm17.72,0v-1.47c1,0,3.65.07,3.65-1.35,0-1.02-7.43-8.39-8.76-9.6-.86-.77-1.73-1.47-2.59-2.24,2.72-1.6,5.37-3.65,7.63-5.83.73-.7,3.38-3.27,3.38-4.23,0-1.35-2.72-1.54-3.65-1.6v-1.6h13.74v1.6c-3.19.19-5.18,1.22-7.7,3.14-2.79,2.11-5.44,4.42-8.16,6.59,3.39,3.52,6.7,7.04,10.22,10.44,1.26,1.22,2.59,2.62,3.98,3.78.93.7,1.92.77,3.05.77v1.6h-14.8Z"/>
    <path class="cls-2" d="m294.72,347.65h-2.72c-2.52,0-4.91.06-7.43.13v-1.6c5.11-.45,5.31-.45,5.31-5.64v-15.17c0-.19,0-.45-.2-.58-.86-.45-3.45-1.54-4.45-1.98v-.64l10.09-3.84v22.54c0,4.93.46,4.87,5.38,5.32v1.6c-1.99-.07-3.98-.13-5.97-.13Zm-2.39-34.32c-1.86,0-3.45-1.41-3.45-3.26s1.59-3.27,3.45-3.27,3.45,1.41,3.45,3.27-1.59,3.26-3.45,3.26Z"/>
    <path class="cls-2" d="m351.42,347.77v-1.92c2.12-.13,5.04.19,6.57-1.47.93-1.02.93-6.27.93-7.75,0-3.2-.06-6.34-.06-9.54h-24.63c0,4.42-.06,8.77-.06,13.19,0,5.64,2.39,5.44,7.3,5.57v1.92h-20.24l-.07-1.92c1.79-.13,4.52-.06,5.64-1.67.93-1.34.8-4.67.8-6.27,0-8.32.2-16.84.2-25.16,0-5.12-2.19-4.8-6.57-5.12v-1.86h19.91v1.86c-1.59.07-3.85,0-5.24.83-1.53.89-1.46,2.18-1.46,3.71-.07,4.16-.13,8.39-.2,12.55h24.63c.06-3.52.13-6.98.13-10.5,0-6.4-.93-6.4-7.17-6.59v-1.86h20.11v1.86c-1.73.07-4.85-.13-5.91,1.47-.73,1.09-.53,5.89-.53,7.3,0,7.49-.2,15.18-.2,22.67,0,1.15-.06,4.61.73,5.51,1.33,1.54,4.11,1.09,5.97,1.28v1.92h-20.57Z"/>
    <path class="cls-2" d="m402.03,343.74c-2.79,2.75-7.43,4.86-11.41,4.86-8.7,0-15.53-6.79-15.53-15.11,0-7.56,8.03-14.28,15.66-14.28,3.52,0,7.3,1.54,10.09,3.59,3.39,2.56,5.51,6.66,5.51,10.82,0,3.65-1.66,7.49-4.32,10.12Zm-4.58-18.89c-1.53-2.18-3.92-3.84-6.7-3.84-1.46,0-2.92.45-4.12,1.22-3.92,2.37-5.24,7.04-5.24,11.27,0,5.44,2.99,13.32,9.83,13.32,6.17,0,8.83-7.94,8.83-12.81,0-3.2-.73-6.47-2.59-9.15Z"/>
    <path class="cls-2" d="m428.38,322.87h-9.29v16.52c0,3.14,1.06,5.83,4.78,5.83,1.92,0,3.58-.64,5.04-1.79l.66,1.02c-2.46,2.5-5.77,4.16-9.36,4.16-4.85,0-6.9-2.88-6.9-7.23,0-6.08.26-12.42.33-18.5h-3.98l-.13-.45c3.25-2.75,6.44-5.51,9.76-8.2v5.64c2.85.06,5.64,0,8.5,0h1.92l-1.33,3.01Z"/>
    <path class="cls-2" d="m445.46,348.61c-7.5,0-13.34-6.59-13.34-13.57,0-4.48,1.46-8.96,4.78-12.17,2.26-2.18,5.71-3.71,8.96-3.71,5.97,0,10.82,4.1,11.15,9.92-6.5.26-12.94.51-19.45.51-.13.64-.13,1.28-.13,1.92v.96c0,6.15,4.52,11.71,11.22,11.71,2.99,0,6.04-2.11,7.97-4.16l.99.83c-2.32,3.97-7.23,7.75-12.15,7.75Zm4.58-24.97c-1.13-2.05-3.05-2.88-5.37-2.88-3.92,0-6.17,4.1-6.77,7.36,4.45-.06,8.76-.26,13.14-1.02,0-1.15-.4-2.43-1-3.46Z"/>
    <path class="cls-2" d="m459.61,347.77v-1.6c1.39-.13,4.05.06,4.78-1.41.46-1.02.4-3.71.4-4.93,0-9.8.14-19.59.14-29.39,0-1.6,0-3.2-.14-4.8-1.33-.58-2.65-1.28-3.98-1.86v-.45c3.25-1.28,6.44-2.76,9.69-4.16v.64c0,13.06-.4,26.19-.4,39.25,0,1.09,0,4.74.4,5.63.73,1.54,3.98,1.41,5.51,1.47v1.6h-16.39Z"/>
  </g>
  <g>
    <path class="cls-2" d="m164.15,419.79c2.58.02,3.28.05,4.22.3,1.95.58,3.43,2.26,3.43,4.29,0,1.73-.99,3.56-3.28,3.89,2.16.38,4.16,2.08,4.16,4.97,0,2.16-1.09,4.06-3.49,4.87-1.22.45-2.19.48-4.4.48h-7.62v-18.79h6.97Zm-3.33,7.45h3.77c2.32,0,3.43-.68,3.43-2.06,0-1.73-1.41-2.33-3.49-2.33h-3.72v4.39Zm0,8.28h4.73c2.13,0,3.38-.73,3.38-2.59,0-1.73-1.25-2.88-4.16-2.88h-3.96v5.47Z"/>
    <path class="cls-2" d="m178.26,438.59l8.3-18.82h3.46l8.22,18.82h-4.16l-1.72-4.26h-8.32l-1.72,4.26h-4.06Zm7-7.28h5.88l-2.94-7.23-2.94,7.23Z"/>
    <path class="cls-2" d="m208.97,424.61v13.97h-3.64v-18.82h4.73l8.87,13.52v-13.52h3.62v18.82h-4.5l-9.08-13.97Z"/>
    <path class="cls-2" d="m248.49,438.59h-3.15v-1.53c-1.33,1.28-2.89,2.01-5.38,2.01-6.09,0-9.28-4.59-9.28-9.71,0-5.97,4.08-10.06,9.49-10.06,4.11,0,7.13,2.31,8.32,5.49l-3.51,1.38c-.36-1.06-1.43-3.66-4.76-3.66-3.72,0-5.54,3.01-5.54,6.75,0,4.16,2.37,6.6,5.59,6.6,2.06,0,4.5-1.08,4.84-4.44h-4.89v-3.14h8.27v10.31Z"/>
    <path class="cls-2" d="m257.53,419.77h3.64v8.81l8.19-8.81h4.42l-7.52,7.98,7.13,10.84h-4.37l-.02-.05-5.23-8.15-2.6,2.76v5.45h-3.64v-18.82Z"/>
    <path class="cls-2" d="m288.93,439.06c-6.01,0-10.43-4.17-10.43-9.94s4.47-9.83,10.43-9.83,10.51,3.81,10.51,9.83-4.45,9.94-10.51,9.94Zm6.58-9.94c0-3.81-2.7-6.65-6.55-6.65s-6.53,2.94-6.53,6.65,2.63,6.7,6.53,6.7,6.55-2.83,6.55-6.7Z"/>
    <path class="cls-2" d="m307.32,419.77h3.64v8.81l8.19-8.81h4.42l-7.52,7.98,7.13,10.84h-4.37l-.02-.05-5.23-8.15-2.6,2.76v5.45h-3.64v-18.82Z"/>
  </g>
  <rect class="cls-2" x="58.87" y="388.38" width="360.81" height="2.67"/>
  <g>
    <g>
      <path class="cls-1" d="m171.58,101.95c2.97,1.96,6.49,3.34,10.03,3.89,3.95.56,7.04.51,10.96-.62-7.14-6.66-14.67-13.21-22.01-19.81,8.1,5.78,16.45,12.09,24.23,17.27.59-1.87.23-5.69-2.05-10.68-1.78-3.73-4.31-7.03-7.53-9.45-5.33-4.02-15.65-7.14-20.44-1.5-5.55,6.46.42,16.59,6.8,20.9Z"/>
      <path class="cls-1" d="m200.2,136.65c4.53-1.25,12.52-5.95,13.17-10.02-8.4.43-16.7,2.02-22.5,5.31,5.44-5.1,13.89-6.96,22.63-7.51-4.42-2.7-10.29-3.95-16.38-2.56-5.95,1.34-13.47,6.39-11.74,11.55,1.49,4.5,9.74,4.65,14.82,3.23Z"/>
      <path class="cls-1" d="m189.01,139.9c2.57,6.71,5.09,11.09,8.93,15.07-4.9-3.22-7.98-7.96-10.46-14.11-1.13,3.51-.68,7.9,1.51,11.72,2.24,3.94,7.63,8.34,11.25,6.05,3.1-2.02,1.6-7.93-.55-11.25-1.97-3.21-7.24-7.83-10.7-7.47Z"/>
      <path class="cls-1" d="m230.67,142.04c-8.22-1.31-15.08-1.17-20.95-.09,6.32-2.49,11.91-3.19,20.8-1.98-2.87-3.12-7.85-5.13-12.94-5.33-5.5-.14-13.23,2.51-13.03,7.37.22,4.21,7.34,6.28,12.05,6.21,4.83-.07,12.36-2.46,14.07-6.18Z"/>
      <path class="cls-1" d="m174.56,118.8c3.04-3.32,4.21-5.69,4.3-7.21-8.61,1.39-17.1,4.87-22.75,8.69,5.72-6.22,13.56-9.73,22.52-10.84-2.61-1.36-5.66-2.27-8.81-2.44-2.78-.17-5.77.32-8.44,1.36-6.06,2.14-13.2,8.58-10.75,14.21,2.07,4.82,10.68,4.14,15.74,2.04,3.06-1.3,5.87-3.34,8.2-5.8Z"/>
      <path class="cls-1" d="m256.2,104.81c1.29-6.36-.53-16.68-7.91-18.24-8.56-1.77-15.15,7.91-16.23,15.41-.93,6.73,1.34,14.13,5.98,18.92,2.2-9.98,6.11-19.43,8.87-27.31-1.53,8.14-2.95,19.1-5.74,28.28,7.34-1.24,13.66-10.22,15.03-17.05Z"/>
      <path class="cls-1" d="m276.74,119.62c3.47,2.88,8.49,4.66,13.96,4.11,5.34-.5,12.55-4.06,11.7-8.78-.81-4.02-7.95-5.16-12.58-4.45-3.83.54-10.54,2.84-13.3,7.27,8.16.03,15.39.15,20.85-2.06-5.74,3.15-12.81,4.17-20.64,3.91Z"/>
      <path class="cls-1" d="m307.47,116.97c6.61-3.57,11.64-6.81,15.57-11.02-3.17,5.19-7.82,9.19-14.3,12.45,3.99.8,8.82-.28,12.65-2.9,4.16-2.82,8.34-8.93,5.34-12.3-2.55-2.99-8.93-.74-12.35,1.83-3.29,2.52-7.74,8.5-6.91,11.95Z"/>
      <path class="cls-1" d="m326.68,130.24c-3.4-4.88-9.72-7.59-15.18-7.58-2.03.03-3.89.54-5.11,1.77,7.55,1.41,13.9,4.9,18.62,10.78-6.32-5.37-13.49-7.88-19.7-9,1.09,4.65,4.18,9.08,8.56,11.76,4.51,2.65,12.18,3.56,14.18-1.34.89-2.09.12-4.39-1.37-6.4Z"/>
      <path class="cls-1" d="m290.64,81.31c2.82-6.78,4.94-14.41,4.33-20.39,2.13,6.15.66,13.86-2.51,21.33,4.21-2.49,7.63-6.79,8.83-12.28,1.13-5.37-.28-13.46-5.46-14.11-5.32-.65-8.78,7.83-8.93,13.22-.05,4.38,1.02,10.44,3.74,12.22Z"/>
      <path class="cls-1" d="m282.3,61.61c.47-4.69-.95-10.5-3.29-14.05,3.26,3.7,5.1,8.64,4.94,14.1,1.23-1.49,2.13-3.25,2.64-5.08.44-1.7.43-3.48.08-5.2-.82-3.7-4.5-8.37-8.61-7.27-3.52.99-3.99,6.18-3.16,9.31.85,2.87,4.19,7.85,7.4,8.19Z"/>
      <path class="cls-1" d="m190.83,80.58c-1.08-7.15-2.73-13.22-5.62-17.57,4.51,4.45,6.96,10.55,7.37,17.42,2.99-3.61,4.32-8.31,2.98-13.01-1.35-4.63-6.5-10.27-11.91-8.67-4.67,1.43-4.99,7.91-3.55,11.83,1.31,3.72,6.25,9.68,10.74,9.99Z"/>
      <path class="cls-1" d="m197.41,62.37c1.56-5.27,2.23-10.11,1.34-14.21,1.72,3.47,2.16,9.44.14,14.06,3-1.48,5.16-4.46,5.72-7.82.57-3.61-1.22-9.16-5.51-9.66-3.75-.42-6.08,3.98-6.37,7.15-.29,3.36,1.37,8.78,4.68,10.48Z"/>
      <path class="cls-1" d="m273.7,138.59c-4.24-3.02-9.74-3.97-14.84-3.32-2.85.34-5.73,1.26-7.85,3.25,8.37-.29,16.53,1.9,23.3,7.02-7.32-3.73-16.75-5.14-23.3-4.52,1.42,4.45,6.45,8.29,11.78,9.86,2.67.84,6.1,1.04,9,.39,7.46-1.65,7.87-8.39,1.91-12.68Z"/>
      <path class="cls-1" d="m246.35,68.16c-5.31-1.95-12.28,2.21-14.86,5.89-1.2,1.72-1.85,3.58-1.96,5.39-.06,2.01.56,3.96,1.72,5.74,2.65-5.63,6.49-11.29,12.41-13.67-4.66,3.32-7.62,8.22-10.07,13.99,4.63.19,11.2-4.31,13.5-7.16,2.51-3.04,3.86-8.51-.72-10.19Z"/>
      <path class="cls-1" d="m292.93,129.54l-.61-.09.85.81c3.31,3.15,6.73,6.4,8.3,10.56.79,2.1,1.15,4.31,1.07,6.57-.07,1.82-.14,3.7-.68,5.47-.45-4.89-2.6-10.47-4.41-13.92-3.17-6.06-9.47-10.86-18.22-13.88-3.8-1.32-8.28-2.06-12.3-2.06-2.71,0-5.23.33-7.41.98,2.68-1.52,5.31-3.18,7.88-4.8,1.59-1,3.23-2.03,4.84-3.02,15.87-9.61,32.26-19.54,42.7-35.5-2.51,6.99-8.98,15.69-16.22,21.72l-.44.37.59-.02c10.6-.41,22.17-7.57,22.72-20.05-.08-9.68-10.19-11.59-17.05-6.1-6.87,5.5-7.54,14.95-12.96,21.44-2.99,3.58-7.38,5.47-11.22,8.04.9-.61,1.64-3.65,2.05-4.67,7.45-18.18-2.99-45.2-19.66-55.86-4.19-2.68-9.35-4.55-14.42-4.55h-.22c-3.98,0-7.03,1.24-8.86,3.59-4.56,5.94.7,13.79,5.09,17.34,3.9,3.13,9.29,4.78,15.6,4.78,2.85,0,5.89-.34,9.01-.99l.29-.07-.16-.23c-5.49-8.14-13.07-12.74-21.72-17.07,11.75,4.22,20.13,10.12,25.57,17.97,4.95,7.24,9.34,19.11,6.2,29.65.74-8.11-.38-13.89-3.38-17.63-2.24-2.77-5.2-4.44-7.93-4.44s-5.1,1.68-6.57,4.75c-5.82,12.6,4.13,23.27,7.32,26.24l.14.13.15-.13c4.8-4.51,3.88-14.43.52-22.29,3.18,4.82,5.03,10.86,4.77,15.93-.24,4.79-2.02,9.32-5.32,12.89-2.3,2.5-4.78,4.87-7.43,7.03-2.64,2.16-5.41,4.14-8.34,5.92-.49.3-6.95,4.34-6.95,4.34.69,1.07,1.17,1.91,1.76,3.03.03.07.06.13.09.19,5.2-3.21,11.22-4.95,17.35-4.95,5.17,0,13.84.77,17.18,5.19,2.25,2.98,1.69,6.8,2.11,10.27.98,7.97,6.79,18.26,16.35,18.26,4.09,0,7.59-3.05,8.73-7.56,1.63-6.52.09-12.92-4.11-17.12-3.54-3.54-8.03-5.83-12.64-6.47Z"/>
    </g>
    <path class="cls-1" d="m274.15,184.51l-2.88-3.3h-.2c-11.35.46-21.95-4.39-27.27-12,0,0,.02-.03.04-.07,2.38-4.34,4.28-9.01,4.82-13.91.53-4.79-.1-9.65-1.61-14.24-.81-2.47-1.78-5.01-2.99-7.33-4.21-8.09-10.87-14.02-19.03-18.3-1.63-.85-3.33-1.61-4.92-2.53-1.22-.7-2.35-1.53-3.4-2.45-1.14-.99-2.11-2.14-2.88-3.42-2.33-3.94-2.77-8.83-2.27-13.22.12-1.11.29-2.22.49-3.32.42-2.32,1.44-4.46,2.16-6.5-2.1,10.95-1.75,17.8,2.66,23.5l.28.37.33-.33c9.34-9.23,10.77-18.3,8.47-24.61-1.69-4.76-5.58-7.84-9.91-7.84-1.27,0-2.53.27-3.75.79-7.05,3.03-8.13,11.66-7.6,18.47-2.41-12.35,1.57-25.59,9.76-35.25,2.36-2.79,5.06-5.56,7.93-7.88-4.64,5.13-7.98,10.15-10.83,16.18l-.28.6.68-.04c6.33-.41,13.17-3.79,17.44-8.63,3.12-3.53,4.57-7.47,4.19-11.4-.32-3.39-2.22-5.66-5.2-6.37-1.33-.42-2.79-.51-4.22-.16-9.77,2.35-16.1,10.97-19.73,19.5-3.45,8.08-5.5,17.11-5.23,25.86.13,4.16.84,8.29,2.3,12.32,1.22,3.6,2.89,7.01,4.97,10.1.71,1.26,1.46,2.43,1.79,2.44-8.75-.08-17.51,2.7-24.89,7.14-10.45,6.31-22.13,16.85-22.16,29.77-.01,6.02,3.6,13.54,10.83,13.45h.27c4.53-.1,8.5-3.4,9.87-8.2,2.03-6.8.75-15.85-3.03-21.51l-.26-.39-.36.32c-4.13,5.81-6.18,11.68-6.18,19.35-.98-2.1-1.44-4.1-1.4-6.19.16-9.05,6.41-15.96,13.52-21.2,1.89-1.39,3.91-2.66,5.98-3.79,1.82-1,3.76-1.87,5.73-2.55,3.22-1.12,6.56-1.65,9.98-1.9,13.55-1.01,26.14,6.4,32.98,17.4,0,0,.49.81.49.81-2.87,3.04-5,7.29-6.01,11.26-1.08,4.29-.89,8.9.26,13.15.36,1.34,1.53,4.58,2.1,6.13,1.02-1.48,1.82-3.03,2.54-4.67-.72-2.13-1.12-4.41-1.4-6.6-.38-2.91.21-6.13,1.16-8.91.75-2.17,1.96-4.31,3.27-6.22,3.19,7.3,3.38,13.56,1.91,19.29-1.18,4.6-3.38,8.88-6.51,12.54-2.55,2.99-5.81,5.61-9.36,7.43-3.44,1.75-7.23,3.19-11.11,3.7-2.09.27-4.33.32-6.43.08l-.19-.02-3.58,3.57-1.5,1.59c4.91,1.18,10.61.93,15.53-.14,3.99-.87,7.89-2.3,11.35-4.42,3.41-2.09,6.46-4.8,9.03-7.8.26.37,2.62,2.75,3.1,3.22,7.79,7.57,18.79,10.7,29.55,9.43l2.18-.34-1.42-1.81Z"/>
  </g>
</svg>